<svg xmlns="http://www.w3.org/2000/svg" version="1.1" xmlns:xlink="http://www.w3.org/1999/xlink" xmlns:svgjs="http://svgjs.com/svgjs" width="200" height="500" preserveAspectRatio="none" viewBox="0 0 200 500">
    <g mask="url(&quot;#SvgjsMask1267&quot;)" fill="none">
        <rect width="200" height="500" x="0" y="0" fill="rgba(239, 239, 239, 1)"></rect>
        <use xlink:href="#SvgjsPath1268" x="30" y="30" stroke="rgba(28, 142, 60, 0.26)"></use>
        <use xlink:href="#SvgjsPath1269" x="30" y="90" stroke="rgba(28, 142, 60, 0.26)"></use>
        <use xlink:href="#SvgjsPath1270" x="30" y="150" stroke="rgba(28, 142, 60, 0.26)"></use>
        <use xlink:href="#SvgjsPath1269" x="30" y="210" stroke="rgba(28, 142, 60, 0.26)"></use>
        <use xlink:href="#SvgjsPath1270" x="30" y="270" stroke="rgba(28, 142, 60, 0.26)"></use>
        <use xlink:href="#SvgjsPath1270" x="30" y="330" stroke="rgba(28, 142, 60, 0.26)"></use>
        <use xlink:href="#SvgjsPath1268" x="30" y="390" stroke="rgba(28, 142, 60, 0.26)"></use>
        <use xlink:href="#SvgjsPath1271" x="30" y="450" stroke="rgba(28, 142, 60, 0.26)"></use>
        <use xlink:href="#SvgjsPath1271" x="30" y="510" stroke="rgba(28, 142, 60, 0.26)"></use>
        <use xlink:href="#SvgjsPath1269" x="90" y="30" stroke="rgba(28, 142, 60, 0.26)"></use>
        <use xlink:href="#SvgjsPath1270" x="90" y="90" stroke="rgba(28, 142, 60, 0.26)"></use>
        <use xlink:href="#SvgjsPath1268" x="90" y="150" stroke="rgba(28, 142, 60, 0.26)"></use>
        <use xlink:href="#SvgjsPath1268" x="90" y="210" stroke="rgba(28, 142, 60, 0.26)"></use>
        <use xlink:href="#SvgjsPath1268" x="90" y="270" stroke="rgba(28, 142, 60, 0.26)"></use>
        <use xlink:href="#SvgjsPath1268" x="90" y="330" stroke="rgba(28, 142, 60, 0.26)"></use>
        <use xlink:href="#SvgjsPath1270" x="90" y="390" stroke="rgba(28, 142, 60, 0.26)"></use>
        <use xlink:href="#SvgjsPath1270" x="90" y="450" stroke="rgba(28, 142, 60, 0.26)"></use>
        <use xlink:href="#SvgjsPath1272" x="90" y="510" stroke="rgba(28, 142, 60, 0.26)"></use>
        <use xlink:href="#SvgjsPath1270" x="150" y="30" stroke="rgba(28, 142, 60, 0.26)"></use>
        <use xlink:href="#SvgjsPath1270" x="150" y="90" stroke="rgba(28, 142, 60, 0.26)"></use>
        <use xlink:href="#SvgjsPath1272" x="150" y="150" stroke="rgba(28, 142, 60, 0.26)"></use>
        <use xlink:href="#SvgjsPath1271" x="150" y="210" stroke="rgba(28, 142, 60, 0.26)"></use>
        <use xlink:href="#SvgjsPath1268" x="150" y="270" stroke="rgba(28, 142, 60, 0.26)"></use>
        <use xlink:href="#SvgjsPath1270" x="150" y="330" stroke="rgba(28, 142, 60, 0.26)"></use>
        <use xlink:href="#SvgjsPath1270" x="150" y="390" stroke="rgba(28, 142, 60, 0.26)"></use>
        <use xlink:href="#SvgjsPath1269" x="150" y="450" stroke="rgba(28, 142, 60, 0.26)"></use>
        <use xlink:href="#SvgjsPath1270" x="150" y="510" stroke="rgba(28, 142, 60, 0.26)"></use>
        <use xlink:href="#SvgjsPath1268" x="210" y="30" stroke="rgba(28, 142, 60, 0.26)"></use>
        <use xlink:href="#SvgjsPath1270" x="210" y="90" stroke="rgba(28, 142, 60, 0.26)"></use>
        <use xlink:href="#SvgjsPath1268" x="210" y="150" stroke="rgba(28, 142, 60, 0.26)"></use>
        <use xlink:href="#SvgjsPath1272" x="210" y="210" stroke="rgba(28, 142, 60, 0.26)"></use>
        <use xlink:href="#SvgjsPath1271" x="210" y="270" stroke="rgba(28, 142, 60, 0.26)"></use>
        <use xlink:href="#SvgjsPath1268" x="210" y="330" stroke="rgba(28, 142, 60, 0.26)"></use>
        <use xlink:href="#SvgjsPath1271" x="210" y="390" stroke="rgba(28, 142, 60, 0.26)"></use>
        <use xlink:href="#SvgjsPath1270" x="210" y="450" stroke="rgba(28, 142, 60, 0.26)"></use>
        <use xlink:href="#SvgjsPath1273" x="210" y="510" stroke="rgba(28, 142, 60, 0.26)" stroke-width="3"></use>
    </g>
    <defs>
        <mask id="SvgjsMask1267">
            <rect width="200" height="500" fill="#ffffff"></rect>
        </mask>
        <path d="M-1 0 a1 1 0 1 0 2 0 a1 1 0 1 0 -2 0z" id="SvgjsPath1272"></path>
        <path d="M-3 0 a3 3 0 1 0 6 0 a3 3 0 1 0 -6 0z" id="SvgjsPath1269"></path>
        <path d="M-5 0 a5 5 0 1 0 10 0 a5 5 0 1 0 -10 0z" id="SvgjsPath1270"></path>
        <path d="M2 -2 L-2 2z" id="SvgjsPath1271"></path>
        <path d="M6 -6 L-6 6z" id="SvgjsPath1268"></path>
        <path d="M30 -30 L-30 30z" id="SvgjsPath1273"></path>
    </defs>
</svg>